<?xml version="1.0" encoding="UTF-8" standalone="no"?>
<!-- Created with Inkscape (http://www.inkscape.org/) -->

<svg
   width="47.577mm"
   height="26.084999mm"
   viewBox="0 0 47.576998 26.084999"
   version="1.1"
   id="svg1030"
   inkscape:version="1.1.2 (0a00cf5339, 2022-02-04)"
   sodipodi:docname="logo-footer.svg"
   xmlns:inkscape="http://www.inkscape.org/namespaces/inkscape"
   xmlns:sodipodi="http://sodipodi.sourceforge.net/DTD/sodipodi-0.dtd"
   xmlns="http://www.w3.org/2000/svg"
   xmlns:svg="http://www.w3.org/2000/svg">
  <sodipodi:namedview
     id="namedview1032"
     pagecolor="#ffffff"
     bordercolor="#666666"
     borderopacity="1.0"
     inkscape:pageshadow="2"
     inkscape:pageopacity="0.0"
     inkscape:pagecheckerboard="0"
     inkscape:document-units="mm"
     showgrid="false"
     units="mm"
     inkscape:zoom="4.0390818"
     inkscape:cx="60.285979"
     inkscape:cy="16.340347"
     inkscape:window-width="3440"
     inkscape:window-height="1307"
     inkscape:window-x="0"
     inkscape:window-y="32"
     inkscape:window-maximized="1"
     inkscape:current-layer="g19960"
     width="34.577mm" />
  <defs
     id="defs1027">
    <marker
       style="overflow:visible"
       id="Arrow1Lstart"
       refX="0"
       refY="0"
       orient="auto"
       inkscape:stockid="Arrow1Lstart"
       inkscape:isstock="true">
      <path
         transform="matrix(0.8,0,0,0.8,10,0)"
         style="fill:context-stroke;fill-rule:evenodd;stroke:context-stroke;stroke-width:1pt"
         d="M 0,0 5,-5 -12.5,0 5,5 Z"
         id="path44914" />
    </marker>
  </defs>
  <g
     inkscape:groupmode="layer"
     id="layer3"
     inkscape:label="Laag 3"
     style="display:inline" />
  <g
     inkscape:label="Laag 1"
     inkscape:groupmode="layer"
     id="layer1"
     style="display:inline">
    <g
       id="g1519"
       transform="matrix(0.09182381,0,0,0.09182381,14.225671,12.946282)">
      <g
         id="g807-9-9-9"
         transform="matrix(58.794848,0,0,35.932289,-8660.7363,-4342.9895)" />
      <g
         id="g10513"
         transform="translate(-47.201889,-27.163357)">
        <g
           id="g20181"
           transform="translate(0,-109.97953)">
          <g
             id="g19960"
             transform="translate(-9.0529866)">
            <g
               id="g891"
               transform="matrix(1.3599789,0,0,1.3599789,-57.45196,-43.561306)">
              <path
                 style="fill:#fffb00;fill-opacity:0;stroke:#fffff9;stroke-width:51.8954;stroke-linecap:butt;stroke-linejoin:miter;stroke-miterlimit:4;stroke-dasharray:none;stroke-opacity:1"
                 d="M -28.578247,156.49587 H 349.37447"
                 id="path30083" />
              <g
                 aria-label="Ondersteuning &amp; Advies"
                 transform="matrix(1.0056874,0,0,0.99434477,-154.012,3.3241829)"
                 id="text67-5-0-4"
                 style="font-size:29.3333px;font-family:'Noto Sans Lydian';-inkscape-font-specification:'Noto Sans Lydian';fill:#44bbbb;fill-opacity:1;stroke-width:5.06084">
                <path
                   d="m 145.92798,142.71334 q -3.15104,0 -5.01301,2.34896 -1.84766,2.34895 -1.84766,6.40233 0,4.03906 1.84766,6.38802 1.86197,2.34895 5.01301,2.34895 3.15104,0 4.98437,-2.34895 1.84765,-2.34896 1.84765,-6.38802 0,-4.05338 -1.84765,-6.40233 -1.83333,-2.34896 -4.98437,-2.34896 z m 0,-2.34896 q 4.49739,0 7.1901,3.02214 2.6927,3.00781 2.6927,8.07811 0,5.05599 -2.6927,8.07812 -2.69271,3.00781 -7.1901,3.00781 -4.51171,0 -7.21874,-3.00781 -2.69271,-3.00781 -2.69271,-8.07812 0,-5.0703 2.69271,-8.07811 2.70703,-3.02214 7.21874,-3.02214 z"
                   style="font-family:'Noto Kufi Arabic';-inkscape-font-specification:'Noto Kufi Arabic';fill:#44bbbb;fill-opacity:1"
                   id="path1604" />
                <path
                   d="m 173.55685,152.45291 v 9.68228 h -2.63541 v -9.59634 q 0,-2.27734 -0.88802,-3.40885 -0.88802,-1.13151 -2.66406,-1.13151 -2.13411,0 -3.36588,1.36068 -1.23177,1.36067 -1.23177,3.70963 v 9.06639 h -2.64974 v -16.04165 h 2.64974 v 2.49219 q 0.94531,-1.44661 2.22005,-2.16276 1.28906,-0.71614 2.96484,-0.71614 2.76432,0 4.18229,1.71874 1.41796,1.70443 1.41796,5.02734 z"
                   style="font-family:'Noto Kufi Arabic';-inkscape-font-specification:'Noto Kufi Arabic';fill:#44bbbb;fill-opacity:1"
                   id="path1606" />
                <path
                   d="m 189.36934,148.52844 v -8.67968 h 2.63541 v 22.28643 h -2.63541 v -2.40624 q -0.83073,1.43229 -2.10547,2.13411 -1.26042,0.6875 -3.03646,0.6875 -2.90754,0 -4.74088,-2.32031 -1.819,-2.32031 -1.819,-6.10156 0,-3.78124 1.819,-6.10155 1.83334,-2.32031 4.74088,-2.32031 1.77604,0 3.03646,0.70182 1.27474,0.6875 2.10547,2.11979 z m -8.98046,5.60025 q 0,2.90755 1.1888,4.56901 1.20312,1.64713 3.29426,1.64713 2.09115,0 3.29427,-1.64713 1.20313,-1.66146 1.20313,-4.56901 0,-2.90755 -1.20313,-4.55468 -1.20312,-1.66146 -3.29427,-1.66146 -2.09114,0 -3.29426,1.66146 -1.1888,1.64713 -1.1888,4.55468 z"
                   style="font-family:'Noto Kufi Arabic';-inkscape-font-specification:'Noto Kufi Arabic';fill:#44bbbb;fill-opacity:1"
                   id="path1608" />
                <path
                   d="m 211.15447,153.45552 v 1.28906 h -12.11718 q 0.17188,2.72135 1.63281,4.15364 1.47526,1.41796 4.09635,1.41796 1.51823,0 2.9362,-0.37239 1.43229,-0.3724 2.83593,-1.11719 v 2.49219 q -1.41797,0.60156 -2.90755,0.91666 -1.48958,0.31511 -3.02213,0.31511 -3.83854,0 -6.08723,-2.23438 -2.23437,-2.23437 -2.23437,-6.04426 0,-3.9388 2.11978,-6.24478 2.13412,-2.32031 5.74349,-2.32031 3.23697,0 5.11327,2.09114 1.89063,2.07682 1.89063,5.65755 z m -2.63542,-0.77344 q -0.0286,-2.16276 -1.21744,-3.45182 -1.17448,-1.28906 -3.1224,-1.28906 -2.20572,0 -3.53775,1.24609 -1.31771,1.24609 -1.51823,3.50911 z"
                   style="font-family:'Noto Kufi Arabic';-inkscape-font-specification:'Noto Kufi Arabic';fill:#44bbbb;fill-opacity:1"
                   id="path1610" />
                <path
                   d="m 224.77554,148.55708 q -0.44401,-0.25781 -0.97396,-0.37239 -0.51562,-0.12891 -1.14583,-0.12891 -2.23437,0 -3.43749,1.46094 -1.1888,1.44661 -1.1888,4.16796 v 8.45051 h -2.64974 v -16.04165 h 2.64974 v 2.49219 q 0.83072,-1.46094 2.16275,-2.16276 1.33203,-0.71614 3.23698,-0.71614 0.27213,0 0.60156,0.043 0.32943,0.0286 0.73047,0.10026 z"
                   style="font-family:'Noto Kufi Arabic';-inkscape-font-specification:'Noto Kufi Arabic';fill:#44bbbb;fill-opacity:1"
                   id="path1612" />
                <path
                   d="m 237.76641,146.5662 v 2.49218 q -1.11718,-0.57291 -2.32031,-0.85937 -1.20312,-0.28646 -2.49218,-0.28646 -1.96224,0 -2.95052,0.60156 -0.97396,0.60157 -0.97396,1.80469 0,0.91667 0.70183,1.44661 0.70182,0.51563 2.82161,0.98828 l 0.90234,0.20052 q 2.80729,0.60157 3.98177,1.70443 1.1888,1.08854 1.1888,3.05078 0,2.23437 -1.77604,3.53775 -1.76172,1.30339 -4.85547,1.30339 -1.28906,0 -2.6927,-0.25782 -1.38932,-0.24348 -2.93619,-0.74479 v -2.72135 q 1.46093,0.75912 2.8789,1.14583 1.41797,0.3724 2.80729,0.3724 1.86197,0 2.86458,-0.63021 1.0026,-0.64453 1.0026,-1.80468 0,-1.07422 -0.73047,-1.64714 -0.71614,-0.57291 -3.16536,-1.10286 l -0.91666,-0.21484 q -2.44922,-0.51563 -3.53776,-1.57552 -1.08854,-1.07422 -1.08854,-2.9362 0,-2.26301 1.60416,-3.49478 1.60417,-1.23177 4.55469,-1.23177 1.46093,0 2.74999,0.21484 1.28906,0.21484 2.3776,0.64453 z"
                   style="font-family:'Noto Kufi Arabic';-inkscape-font-specification:'Noto Kufi Arabic';fill:#44bbbb;fill-opacity:1"
                   id="path1614" />
                <path
                   d="m 245.42916,141.53886 v 4.55468 h 5.42838 v 2.04818 h -5.42838 v 8.70832 q 0,1.96224 0.52995,2.52083 0.54427,0.5586 2.1914,0.5586 h 2.70703 v 2.20572 h -2.70703 q -3.05077,0 -4.21093,-1.13151 -1.16015,-1.14583 -1.16015,-4.15364 v -8.70832 h -1.9336 v -2.04818 h 1.9336 v -4.55468 z"
                   style="font-family:'Noto Kufi Arabic';-inkscape-font-specification:'Noto Kufi Arabic';fill:#44bbbb;fill-opacity:1"
                   id="path1616" />
                <path
                   d="m 268.04502,153.45552 v 1.28906 h -12.11717 q 0.17187,2.72135 1.63281,4.15364 1.47526,1.41796 4.09635,1.41796 1.51823,0 2.93619,-0.37239 1.43229,-0.3724 2.83594,-1.11719 v 2.49219 q -1.41797,0.60156 -2.90755,0.91666 -1.48958,0.31511 -3.02213,0.31511 -3.83854,0 -6.08724,-2.23438 -2.23437,-2.23437 -2.23437,-6.04426 0,-3.9388 2.11979,-6.24478 2.13411,-2.32031 5.74348,-2.32031 3.23698,0 5.11328,2.09114 1.89062,2.07682 1.89062,5.65755 z m -2.63541,-0.77344 q -0.0286,-2.16276 -1.21745,-3.45182 -1.17448,-1.28906 -3.12239,-1.28906 -2.20573,0 -3.53776,1.24609 -1.3177,1.24609 -1.51822,3.50911 z"
                   style="font-family:'Noto Kufi Arabic';-inkscape-font-specification:'Noto Kufi Arabic';fill:#44bbbb;fill-opacity:1"
                   id="path1618" />
                <path
                   d="m 272.0984,155.80447 v -9.71093 h 2.63541 v 9.61067 q 0,2.27734 0.88802,3.42317 0.88802,1.13151 2.66406,1.13151 2.13412,0 3.36589,-1.36067 1.24609,-1.36068 1.24609,-3.70963 v -9.09505 h 2.63541 v 16.04165 h -2.63541 v -2.46354 q -0.95964,1.46094 -2.23437,2.17708 -1.26042,0.70183 -2.9362,0.70183 -2.76432,0 -4.19661,-1.71875 -1.43229,-1.71875 -1.43229,-5.02734 z m 6.6315,-10.09764 z"
                   style="font-family:'Noto Kufi Arabic';-inkscape-font-specification:'Noto Kufi Arabic';fill:#44bbbb;fill-opacity:1"
                   id="path1620" />
                <path
                   d="m 304.29628,152.45291 v 9.68228 h -2.63541 v -9.59634 q 0,-2.27734 -0.88802,-3.40885 -0.88802,-1.13151 -2.66406,-1.13151 -2.13411,0 -3.36588,1.36068 -1.23177,1.36067 -1.23177,3.70963 v 9.06639 h -2.64974 v -16.04165 h 2.64974 v 2.49219 q 0.94531,-1.44661 2.22005,-2.16276 1.28906,-0.71614 2.96484,-0.71614 2.76432,0 4.18228,1.71874 1.41797,1.70443 1.41797,5.02734 z"
                   style="font-family:'Noto Kufi Arabic';-inkscape-font-specification:'Noto Kufi Arabic';fill:#44bbbb;fill-opacity:1"
                   id="path1622" />
                <path
                   d="m 309.55279,146.09354 h 2.63541 v 16.04165 h -2.63541 z m 0,-6.24478 h 2.63541 v 3.33724 h -2.63541 z"
                   style="font-family:'Noto Kufi Arabic';-inkscape-font-specification:'Noto Kufi Arabic';fill:#44bbbb;fill-opacity:1"
                   id="path1624" />
                <path
                   d="m 331.03714,152.45291 v 9.68228 h -2.63541 v -9.59634 q 0,-2.27734 -0.88802,-3.40885 -0.88802,-1.13151 -2.66406,-1.13151 -2.13411,0 -3.36588,1.36068 -1.23177,1.36067 -1.23177,3.70963 v 9.06639 h -2.64974 v -16.04165 h 2.64974 v 2.49219 q 0.94531,-1.44661 2.22005,-2.16276 1.28906,-0.71614 2.96484,-0.71614 2.76432,0 4.18228,1.71874 1.41797,1.70443 1.41797,5.02734 z"
                   style="font-family:'Noto Kufi Arabic';-inkscape-font-specification:'Noto Kufi Arabic';fill:#44bbbb;fill-opacity:1"
                   id="path1626" />
                <path
                   d="m 346.84962,153.92817 q 0,-2.86458 -1.1888,-4.4401 -1.17447,-1.57552 -3.30859,-1.57552 -2.11979,0 -3.30859,1.57552 -1.17447,1.57552 -1.17447,4.4401 0,2.85026 1.17447,4.42578 1.1888,1.57552 3.30859,1.57552 2.13412,0 3.30859,-1.57552 1.1888,-1.57552 1.1888,-4.42578 z m 2.63542,6.21614 q 0,4.09635 -1.81901,6.08723 -1.81901,2.00521 -5.57161,2.00521 -1.38932,0 -2.62109,-0.21485 -1.23177,-0.20052 -2.39192,-0.6302 v -2.5638 q 1.16015,0.63021 2.29166,0.93099 1.13151,0.30078 2.30599,0.30078 2.59244,0 3.8815,-1.36068 1.28906,-1.34635 1.28906,-4.08202 v -1.30339 q -0.8164,1.41797 -2.09114,2.11979 -1.27474,0.70182 -3.05078,0.70182 -2.95051,0 -4.7552,-2.24869 -1.80468,-2.2487 -1.80468,-5.95833 0,-3.72395 1.80468,-5.97265 1.80469,-2.24869 4.7552,-2.24869 1.77604,0 3.05078,0.70182 1.27474,0.70182 2.09114,2.11979 v -2.4349 h 2.63542 z"
                   style="font-family:'Noto Kufi Arabic';-inkscape-font-specification:'Noto Kufi Arabic';fill:#44bbbb;fill-opacity:1"
                   id="path1628" />
                <path
                   d="m 368.6061,150.6339 q -1.30338,1.16016 -1.91927,2.32031 -0.60156,1.14584 -0.60156,2.40625 0,2.09114 1.51823,3.48047 1.51823,1.38932 3.80989,1.38932 1.36068,0 2.54948,-0.44401 1.1888,-0.45834 2.23437,-1.375 z m 2.01953,-1.60416 7.27603,7.44791 q 0.84505,-1.27474 1.31771,-2.72135 0.47266,-1.46094 0.55859,-3.09375 h 2.66406 q -0.17187,1.89062 -0.91666,3.73828 -0.74479,1.84765 -2.07682,3.65234 l 3.99609,4.08202 h -3.60937 l -2.04818,-2.10546 q -1.48958,1.27473 -3.12239,1.90494 -1.63281,0.61589 -3.50911,0.61589 -3.45182,0 -5.64323,-1.96224 -2.1914,-1.97656 -2.1914,-5.05598 0,-1.83334 0.95964,-3.4375 0.95963,-1.61849 2.8789,-3.03646 -0.6875,-0.90234 -1.04557,-1.79036 -0.35808,-0.90234 -0.35808,-1.76171 0,-2.32031 1.58985,-3.72396 1.58984,-1.41797 4.22525,-1.41797 1.1888,0 2.36328,0.25782 1.1888,0.25781 2.40625,0.77343 v 2.60677 q -1.24609,-0.67318 -2.3776,-1.01692 -1.13151,-0.35808 -2.10547,-0.35808 -1.5039,0 -2.44922,0.80209 -0.93098,0.78775 -0.93098,2.04817 0,0.73047 0.41536,1.47526 0.42969,0.73047 1.73307,2.07682 z"
                   style="font-family:'Noto Kufi Arabic';-inkscape-font-specification:'Noto Kufi Arabic';fill:#44bbbb;fill-opacity:1"
                   id="path1630" />
                <path
                   d="m 403.69722,143.60136 -3.92448,10.64191 h 7.86328 z m -1.63281,-2.85026 h 3.27994 l 8.14973,21.38409 h -3.00781 l -1.94791,-5.48567 h -9.63931 l -1.94792,5.48567 h -3.05078 z"
                   style="font-family:'Noto Kufi Arabic';-inkscape-font-specification:'Noto Kufi Arabic';fill:#44bbbb;fill-opacity:1"
                   id="path1632" />
                <path
                   d="m 426.54224,148.52844 v -8.67968 h 2.63541 v 22.28643 h -2.63541 v -2.40624 q -0.83073,1.43229 -2.10547,2.13411 -1.26042,0.6875 -3.03645,0.6875 -2.90755,0 -4.74088,-2.32031 -1.81901,-2.32031 -1.81901,-6.10156 0,-3.78124 1.81901,-6.10155 1.83333,-2.32031 4.74088,-2.32031 1.77603,0 3.03645,0.70182 1.27474,0.6875 2.10547,2.11979 z m -8.98046,5.60025 q 0,2.90755 1.1888,4.56901 1.20312,1.64713 3.29427,1.64713 2.09114,0 3.29426,-1.64713 1.20313,-1.66146 1.20313,-4.56901 0,-2.90755 -1.20313,-4.55468 -1.20312,-1.66146 -3.29426,-1.66146 -2.09115,0 -3.29427,1.66146 -1.1888,1.64713 -1.1888,4.55468 z"
                   style="font-family:'Noto Kufi Arabic';-inkscape-font-specification:'Noto Kufi Arabic';fill:#44bbbb;fill-opacity:1"
                   id="path1634" />
                <path
                   d="m 432.71542,146.09354 h 2.79296 l 5.01302,13.46353 5.01301,-13.46353 h 2.79297 l -6.01562,16.04165 h -3.58072 z"
                   style="font-family:'Noto Kufi Arabic';-inkscape-font-specification:'Noto Kufi Arabic';fill:#44bbbb;fill-opacity:1"
                   id="path1636" />
                <path
                   d="m 451.96538,146.09354 h 2.63542 v 16.04165 h -2.63542 z m 0,-6.24478 h 2.63542 v 3.33724 h -2.63542 z"
                   style="font-family:'Noto Kufi Arabic';-inkscape-font-specification:'Noto Kufi Arabic';fill:#44bbbb;fill-opacity:1"
                   id="path1638" />
                <path
                   d="m 473.83644,153.45552 v 1.28906 h -12.11717 q 0.17187,2.72135 1.63281,4.15364 1.47526,1.41796 4.09635,1.41796 1.51823,0 2.93619,-0.37239 1.43229,-0.3724 2.83594,-1.11719 v 2.49219 q -1.41797,0.60156 -2.90755,0.91666 -1.48958,0.31511 -3.02213,0.31511 -3.83854,0 -6.08724,-2.23438 -2.23437,-2.23437 -2.23437,-6.04426 0,-3.9388 2.11979,-6.24478 2.13411,-2.32031 5.74348,-2.32031 3.23698,0 5.11328,2.09114 1.89062,2.07682 1.89062,5.65755 z m -2.63541,-0.77344 q -0.0287,-2.16276 -1.21745,-3.45182 -1.17448,-1.28906 -3.12239,-1.28906 -2.20573,0 -3.53776,1.24609 -1.3177,1.24609 -1.51822,3.50911 z"
                   style="font-family:'Noto Kufi Arabic';-inkscape-font-specification:'Noto Kufi Arabic';fill:#44bbbb;fill-opacity:1"
                   id="path1640" />
                <path
                   d="m 488.38853,146.5662 v 2.49218 q -1.11719,-0.57291 -2.32031,-0.85937 -1.20312,-0.28646 -2.49218,-0.28646 -1.96224,0 -2.95052,0.60156 -0.97396,0.60157 -0.97396,1.80469 0,0.91667 0.70182,1.44661 0.70182,0.51563 2.82161,0.98828 l 0.90235,0.20052 q 2.80729,0.60157 3.98176,1.70443 1.1888,1.08854 1.1888,3.05078 0,2.23437 -1.77604,3.53775 -1.76171,1.30339 -4.85546,1.30339 -1.28906,0 -2.6927,-0.25782 -1.38933,-0.24348 -2.9362,-0.74479 v -2.72135 q 1.46094,0.75912 2.8789,1.14583 1.41797,0.3724 2.80729,0.3724 1.86198,0 2.86458,-0.63021 1.00261,-0.64453 1.00261,-1.80468 0,-1.07422 -0.73047,-1.64714 -0.71615,-0.57291 -3.16536,-1.10286 l -0.91667,-0.21484 q -2.44921,-0.51563 -3.53776,-1.57552 -1.08854,-1.07422 -1.08854,-2.9362 0,-2.26301 1.60417,-3.49478 1.60416,-1.23177 4.55468,-1.23177 1.46094,0 2.75,0.21484 1.28906,0.21484 2.3776,0.64453 z"
                   style="font-family:'Noto Kufi Arabic';-inkscape-font-specification:'Noto Kufi Arabic';fill:#44bbbb;fill-opacity:1"
                   id="path1642" />
              </g>
              <text
                 xml:space="preserve"
                 style="font-style:normal;font-weight:normal;font-size:117.611px;line-height:1.25;font-family:sans-serif;fill:#ffffff;fill-opacity:1;stroke:none;stroke-width:2.94029"
                 x="-26.643522"
                 y="162.67241"
                 id="text36614"
                 transform="scale(1.3024732,0.76777014)"><tspan
                   sodipodi:role="line"
                   id="tspan36612"
                   style="fill:#ffffff;fill-opacity:1;stroke-width:2.94029"
                   x="-26.643522"
                   y="162.67241">ZE</tspan></text>
              <text
                 xml:space="preserve"
                 style="font-style:normal;font-weight:normal;font-size:117.611px;line-height:1.25;font-family:sans-serif;display:inline;fill:#ffffff;fill-opacity:1;stroke:none;stroke-width:2.94029"
                 x="123.55018"
                 y="162.65707"
                 id="text36614-2"
                 transform="scale(1.3024732,0.76777012)"><tspan
                   sodipodi:role="line"
                   id="tspan36612-9"
                   style="fill:#ffffff;fill-opacity:1;stroke-width:2.94029"
                   x="123.55018"
                   y="162.65707">K</tspan></text>
              <text
                 xml:space="preserve"
                 style="font-style:normal;font-weight:normal;font-size:48.4959px;line-height:1.25;font-family:sans-serif;display:inline;fill:#ffffff;fill-opacity:1;stroke:none;stroke-width:1.2124"
                 x="252.42532"
                 y="135.7119"
                 id="text36614-5"
                 transform="scale(1.0866078,0.92029525)"><tspan
                   sodipodi:role="line"
                   id="tspan36612-6"
                   style="fill:#ffffff;fill-opacity:1;stroke-width:1.2124"
                   x="252.42532"
                   y="135.7119">BV</tspan></text>
            </g>
          </g>
        </g>
      </g>
    </g>
  </g>
</svg>
